<mxfile host="65bd71144e">
    <diagram id="jn-Cg3QizQ3yQqAr4hrQ" name="Page-1">
        <mxGraphModel dx="283" dy="1331" grid="1" gridSize="10" guides="1" tooltips="1" connect="1" arrows="1" fold="1" page="1" pageScale="1" pageWidth="827" pageHeight="1169" math="0" shadow="0">
            <root>
                <mxCell id="0"/>
                <mxCell id="1" parent="0"/>
                <mxCell id="15" style="edgeStyle=none;html=1;exitX=0.5;exitY=0.5;exitDx=0;exitDy=0;exitPerimeter=0;fontSize=17;rounded=1;sketch=1;curveFitting=1;jiggle=2;" parent="1" source="2" edge="1">
                    <mxGeometry relative="1" as="geometry">
                        <mxPoint x="603" y="-1020" as="targetPoint"/>
                        <Array as="points">
                            <mxPoint x="643" y="-1050"/>
                        </Array>
                    </mxGeometry>
                </mxCell>
                <mxCell id="2" value="Usuario" style="shape=umlActor;verticalLabelPosition=bottom;verticalAlign=top;html=1;outlineConnect=0;rounded=1;sketch=1;curveFitting=1;jiggle=2;" parent="1" vertex="1">
                    <mxGeometry x="588" y="-1120" width="30" height="60" as="geometry"/>
                </mxCell>
                <mxCell id="20" style="edgeStyle=none;html=1;fontSize=17;rounded=1;sketch=1;curveFitting=1;jiggle=2;" parent="1" source="19" edge="1">
                    <mxGeometry relative="1" as="geometry">
                        <mxPoint x="533" y="-960" as="targetPoint"/>
                    </mxGeometry>
                </mxCell>
                <mxCell id="21" style="edgeStyle=none;html=1;fontSize=17;rounded=1;sketch=1;curveFitting=1;jiggle=2;" parent="1" source="19" edge="1">
                    <mxGeometry relative="1" as="geometry">
                        <mxPoint x="653" y="-960" as="targetPoint"/>
                    </mxGeometry>
                </mxCell>
                <mxCell id="19" value="Tem conta&amp;nbsp;" style="text;html=1;align=center;verticalAlign=middle;resizable=0;points=[];autosize=1;strokeColor=none;fillColor=none;fontSize=17;rounded=1;sketch=1;curveFitting=1;jiggle=2;" parent="1" vertex="1">
                    <mxGeometry x="547" y="-1020" width="110" height="30" as="geometry"/>
                </mxCell>
                <mxCell id="24" style="edgeStyle=none;html=1;fontSize=17;entryX=0.485;entryY=-0.097;entryDx=0;entryDy=0;entryPerimeter=0;rounded=1;sketch=1;curveFitting=1;jiggle=2;" parent="1" source="22" target="27" edge="1">
                    <mxGeometry relative="1" as="geometry">
                        <mxPoint x="443" y="-900" as="targetPoint"/>
                        <Array as="points"/>
                    </mxGeometry>
                </mxCell>
                <mxCell id="26" style="edgeStyle=none;html=1;fontSize=17;rounded=1;sketch=1;curveFitting=1;jiggle=2;" parent="1" source="22" target="29" edge="1">
                    <mxGeometry relative="1" as="geometry">
                        <mxPoint x="533" y="-900" as="targetPoint"/>
                    </mxGeometry>
                </mxCell>
                <mxCell id="22" value="SIM" style="text;html=1;align=center;verticalAlign=middle;resizable=0;points=[];autosize=1;strokeColor=none;fillColor=none;fontSize=17;rounded=1;sketch=1;curveFitting=1;jiggle=2;" parent="1" vertex="1">
                    <mxGeometry x="508" y="-960" width="50" height="30" as="geometry"/>
                </mxCell>
                <mxCell id="53" style="edgeStyle=none;html=1;fontSize=13;entryX=0.5;entryY=0;entryDx=0;entryDy=0;rounded=1;sketch=1;curveFitting=1;jiggle=2;" parent="1" source="23" target="54" edge="1">
                    <mxGeometry relative="1" as="geometry">
                        <mxPoint x="733" y="-900" as="targetPoint"/>
                    </mxGeometry>
                </mxCell>
                <mxCell id="23" value="NÃO" style="text;html=1;align=center;verticalAlign=middle;resizable=0;points=[];autosize=1;strokeColor=none;fillColor=none;fontSize=17;rounded=1;sketch=1;curveFitting=1;jiggle=2;" parent="1" vertex="1">
                    <mxGeometry x="627" y="-960" width="60" height="30" as="geometry"/>
                </mxCell>
                <mxCell id="38" style="edgeStyle=none;html=1;fontSize=13;rounded=1;sketch=1;curveFitting=1;jiggle=2;" parent="1" source="27" target="39" edge="1">
                    <mxGeometry relative="1" as="geometry">
                        <mxPoint x="533" y="-760" as="targetPoint"/>
                    </mxGeometry>
                </mxCell>
                <mxCell id="27" value="Criar evento&amp;nbsp;" style="text;html=1;align=center;verticalAlign=middle;resizable=0;points=[];autosize=1;strokeColor=none;fillColor=none;fontSize=17;rounded=1;sketch=1;curveFitting=1;jiggle=2;" parent="1" vertex="1">
                    <mxGeometry x="473" y="-870" width="120" height="30" as="geometry"/>
                </mxCell>
                <mxCell id="30" style="edgeStyle=none;html=1;fontSize=17;rounded=1;sketch=1;curveFitting=1;jiggle=2;" parent="1" source="29" target="32" edge="1">
                    <mxGeometry relative="1" as="geometry">
                        <mxPoint x="433" y="-799.9999999999999" as="targetPoint"/>
                    </mxGeometry>
                </mxCell>
                <mxCell id="31" style="edgeStyle=none;html=1;fontSize=17;rounded=1;sketch=1;curveFitting=1;jiggle=2;" parent="1" source="29" target="33" edge="1">
                    <mxGeometry relative="1" as="geometry">
                        <mxPoint x="563" y="-800" as="targetPoint"/>
                    </mxGeometry>
                </mxCell>
                <mxCell id="29" value="Participar de evento" style="text;html=1;align=center;verticalAlign=middle;resizable=0;points=[];autosize=1;strokeColor=none;fillColor=none;fontSize=17;rounded=1;sketch=1;curveFitting=1;jiggle=2;" parent="1" vertex="1">
                    <mxGeometry x="233" y="-950" width="170" height="30" as="geometry"/>
                </mxCell>
                <mxCell id="34" style="edgeStyle=none;html=1;fontSize=17;rounded=1;sketch=1;curveFitting=1;jiggle=2;" parent="1" source="32" target="36" edge="1">
                    <mxGeometry relative="1" as="geometry">
                        <mxPoint x="199" y="-784.9999999999999" as="targetPoint"/>
                    </mxGeometry>
                </mxCell>
                <mxCell id="32" value="Codigo no evento&amp;nbsp;" style="text;html=1;align=center;verticalAlign=middle;resizable=0;points=[];autosize=1;strokeColor=none;fillColor=none;fontSize=17;rounded=1;sketch=1;curveFitting=1;jiggle=2;" parent="1" vertex="1">
                    <mxGeometry x="49" y="-860" width="160" height="30" as="geometry"/>
                </mxCell>
                <mxCell id="35" style="edgeStyle=none;html=1;fontSize=17;rounded=1;sketch=1;curveFitting=1;jiggle=2;" parent="1" source="33" target="36" edge="1">
                    <mxGeometry relative="1" as="geometry">
                        <mxPoint x="209" y="-784.9999999999999" as="targetPoint"/>
                    </mxGeometry>
                </mxCell>
                <mxCell id="33" value="Link de convite&amp;nbsp;" style="text;html=1;align=center;verticalAlign=middle;resizable=0;points=[];autosize=1;strokeColor=none;fillColor=none;fontSize=17;rounded=1;sketch=1;curveFitting=1;jiggle=2;" parent="1" vertex="1">
                    <mxGeometry x="233" y="-860" width="140" height="30" as="geometry"/>
                </mxCell>
                <mxCell id="36" value="Validação do evento&amp;nbsp;&lt;br style=&quot;font-size: 13px;&quot;&gt;&lt;font style=&quot;font-size: 13px;&quot;&gt;Deve validar configuraçõs do link, se há tempo de inspiração&amp;nbsp;&lt;br&gt;&lt;/font&gt;&lt;font style=&quot;font-size: 13px;&quot;&gt;ou se a limite de convidados&amp;nbsp;&lt;/font&gt;&lt;font style=&quot;font-size: 17px;&quot;&gt;&amp;nbsp;&lt;br&gt;&lt;/font&gt;" style="text;html=1;align=center;verticalAlign=middle;resizable=0;points=[];autosize=1;strokeColor=none;fillColor=none;fontSize=17;rounded=1;sketch=1;curveFitting=1;jiggle=2;" parent="1" vertex="1">
                    <mxGeometry x="23" y="-795" width="380" height="70" as="geometry"/>
                </mxCell>
                <mxCell id="51" style="edgeStyle=none;html=1;fontSize=13;rounded=1;sketch=1;curveFitting=1;jiggle=2;" parent="1" source="39" target="52" edge="1">
                    <mxGeometry relative="1" as="geometry">
                        <mxPoint x="533" y="-480" as="targetPoint"/>
                    </mxGeometry>
                </mxCell>
                <mxCell id="39" value="Fornecer os seguintes dados&amp;nbsp;" style="swimlane;fontStyle=0;childLayout=stackLayout;horizontal=1;startSize=30;horizontalStack=0;resizeParent=1;resizeParentMax=0;resizeLast=0;collapsible=1;marginBottom=0;whiteSpace=wrap;html=1;fontSize=13;rounded=1;sketch=1;curveFitting=1;jiggle=2;" parent="1" vertex="1">
                    <mxGeometry x="463" y="-750" width="140" height="180" as="geometry"/>
                </mxCell>
                <mxCell id="40" value="Localização do evento" style="text;strokeColor=none;fillColor=none;align=left;verticalAlign=middle;spacingLeft=4;spacingRight=4;overflow=hidden;points=[[0,0.5],[1,0.5]];portConstraint=eastwest;rotatable=0;whiteSpace=wrap;html=1;fontSize=13;rounded=1;sketch=1;curveFitting=1;jiggle=2;" parent="39" vertex="1">
                    <mxGeometry y="30" width="140" height="30" as="geometry"/>
                </mxCell>
                <mxCell id="41" value="Tipo de divisão de custo" style="text;strokeColor=none;fillColor=none;align=left;verticalAlign=middle;spacingLeft=4;spacingRight=4;overflow=hidden;points=[[0,0.5],[1,0.5]];portConstraint=eastwest;rotatable=0;whiteSpace=wrap;html=1;fontSize=13;rounded=1;sketch=1;curveFitting=1;jiggle=2;" parent="39" vertex="1">
                    <mxGeometry y="60" width="140" height="30" as="geometry"/>
                </mxCell>
                <mxCell id="42" value="Custo com locação&amp;nbsp;" style="text;strokeColor=none;fillColor=none;align=left;verticalAlign=middle;spacingLeft=4;spacingRight=4;overflow=hidden;points=[[0,0.5],[1,0.5]];portConstraint=eastwest;rotatable=0;whiteSpace=wrap;html=1;fontSize=13;rounded=1;sketch=1;curveFitting=1;jiggle=2;" parent="39" vertex="1">
                    <mxGeometry y="90" width="140" height="30" as="geometry"/>
                </mxCell>
                <mxCell id="45" value="Lista de consumiveis" style="text;strokeColor=none;fillColor=none;align=left;verticalAlign=middle;spacingLeft=4;spacingRight=4;overflow=hidden;points=[[0,0.5],[1,0.5]];portConstraint=eastwest;rotatable=0;whiteSpace=wrap;html=1;fontSize=13;rounded=1;sketch=1;curveFitting=1;jiggle=2;" parent="39" vertex="1">
                    <mxGeometry y="120" width="140" height="30" as="geometry"/>
                </mxCell>
                <mxCell id="47" value="Lista de bebidas" style="text;strokeColor=none;fillColor=none;align=left;verticalAlign=middle;spacingLeft=4;spacingRight=4;overflow=hidden;points=[[0,0.5],[1,0.5]];portConstraint=eastwest;rotatable=0;whiteSpace=wrap;html=1;fontSize=13;rounded=1;sketch=1;curveFitting=1;jiggle=2;" parent="39" vertex="1">
                    <mxGeometry y="150" width="140" height="30" as="geometry"/>
                </mxCell>
                <mxCell id="52" value="Criar convites" style="text;html=1;align=center;verticalAlign=middle;resizable=0;points=[];autosize=1;strokeColor=none;fillColor=none;fontSize=13;rounded=1;sketch=1;curveFitting=1;jiggle=2;" parent="1" vertex="1">
                    <mxGeometry x="483" y="-480" width="100" height="30" as="geometry"/>
                </mxCell>
                <mxCell id="54" value="Fornecer os dados&amp;nbsp;" style="swimlane;fontStyle=0;childLayout=stackLayout;horizontal=1;startSize=30;horizontalStack=0;resizeParent=1;resizeParentMax=0;resizeLast=0;collapsible=1;marginBottom=0;whiteSpace=wrap;html=1;fontSize=13;rounded=1;sketch=1;curveFitting=1;jiggle=2;" parent="1" vertex="1">
                    <mxGeometry x="663" y="-890" width="140" height="120" as="geometry"/>
                </mxCell>
                <mxCell id="55" value="Nome&amp;nbsp;" style="text;strokeColor=none;fillColor=none;align=left;verticalAlign=middle;spacingLeft=4;spacingRight=4;overflow=hidden;points=[[0,0.5],[1,0.5]];portConstraint=eastwest;rotatable=0;whiteSpace=wrap;html=1;fontSize=13;rounded=1;sketch=1;curveFitting=1;jiggle=2;" parent="54" vertex="1">
                    <mxGeometry y="30" width="140" height="30" as="geometry"/>
                </mxCell>
                <mxCell id="56" value="Email" style="text;strokeColor=none;fillColor=none;align=left;verticalAlign=middle;spacingLeft=4;spacingRight=4;overflow=hidden;points=[[0,0.5],[1,0.5]];portConstraint=eastwest;rotatable=0;whiteSpace=wrap;html=1;fontSize=13;rounded=1;sketch=1;curveFitting=1;jiggle=2;" parent="54" vertex="1">
                    <mxGeometry y="60" width="140" height="30" as="geometry"/>
                </mxCell>
                <mxCell id="57" value="Telefone" style="text;strokeColor=none;fillColor=none;align=left;verticalAlign=middle;spacingLeft=4;spacingRight=4;overflow=hidden;points=[[0,0.5],[1,0.5]];portConstraint=eastwest;rotatable=0;whiteSpace=wrap;html=1;fontSize=13;rounded=1;sketch=1;curveFitting=1;jiggle=2;" parent="54" vertex="1">
                    <mxGeometry y="90" width="140" height="30" as="geometry"/>
                </mxCell>
                <mxCell id="67" style="edgeStyle=none;html=1;rounded=1;sketch=1;curveFitting=1;jiggle=2;" parent="1" edge="1">
                    <mxGeometry relative="1" as="geometry">
                        <mxPoint x="1340" y="97.50000000000003" as="targetPoint"/>
                        <mxPoint x="1530" y="94.78947368421055" as="sourcePoint"/>
                        <Array as="points">
                            <mxPoint x="1370" y="99"/>
                        </Array>
                    </mxGeometry>
                </mxCell>
                <mxCell id="78" style="edgeStyle=none;html=1;rounded=1;sketch=1;curveFitting=1;jiggle=2;" parent="1" source="58" target="168" edge="1">
                    <mxGeometry relative="1" as="geometry">
                        <mxPoint x="1470" y="340" as="targetPoint"/>
                        <mxPoint x="1550" y="150" as="sourcePoint"/>
                        <Array as="points"/>
                    </mxGeometry>
                </mxCell>
                <mxCell id="58" value="" style="shape=umlActor;verticalLabelPosition=bottom;verticalAlign=top;html=1;outlineConnect=0;fontStyle=0;rounded=1;sketch=1;curveFitting=1;jiggle=2;" parent="1" vertex="1">
                    <mxGeometry x="1530" y="40" width="60" height="110" as="geometry"/>
                </mxCell>
                <mxCell id="61" style="edgeStyle=none;html=1;rounded=1;sketch=1;curveFitting=1;jiggle=2;" parent="1" source="59" target="69" edge="1">
                    <mxGeometry relative="1" as="geometry">
                        <mxPoint x="1180" y="96" as="targetPoint"/>
                    </mxGeometry>
                </mxCell>
                <mxCell id="73" style="edgeStyle=none;html=1;rounded=1;sketch=1;curveFitting=1;jiggle=2;" parent="1" source="59" target="103" edge="1">
                    <mxGeometry relative="1" as="geometry">
                        <mxPoint x="999.230769230769" y="319.9999999999999" as="targetPoint"/>
                        <Array as="points">
                            <mxPoint x="1010" y="250"/>
                        </Array>
                    </mxGeometry>
                </mxCell>
                <mxCell id="59" value="" style="shape=umlActor;verticalLabelPosition=bottom;verticalAlign=top;html=1;outlineConnect=0;rounded=1;sketch=1;curveFitting=1;jiggle=2;" parent="1" vertex="1">
                    <mxGeometry x="920" y="41" width="60" height="110" as="geometry"/>
                </mxCell>
                <mxCell id="62" value="" style="rounded=1;whiteSpace=wrap;html=1;sketch=1;curveFitting=1;jiggle=2;" parent="1" vertex="1">
                    <mxGeometry x="1010" y="70" width="100" height="50" as="geometry"/>
                </mxCell>
                <mxCell id="64" value="Não tem conta" style="text;html=1;strokeColor=none;fillColor=none;align=center;verticalAlign=middle;whiteSpace=wrap;rounded=1;sketch=1;curveFitting=1;jiggle=2;" parent="1" vertex="1">
                    <mxGeometry x="1030" y="81" width="60" height="30" as="geometry"/>
                </mxCell>
                <mxCell id="65" value="" style="rounded=1;whiteSpace=wrap;html=1;sketch=1;curveFitting=1;jiggle=2;" parent="1" vertex="1">
                    <mxGeometry x="1410" y="70" width="100" height="50" as="geometry"/>
                </mxCell>
                <mxCell id="66" value="Não tem conta" style="text;html=1;strokeColor=none;fillColor=none;align=center;verticalAlign=middle;whiteSpace=wrap;rounded=1;sketch=1;curveFitting=1;jiggle=2;" parent="1" vertex="1">
                    <mxGeometry x="1430" y="81" width="60" height="30" as="geometry"/>
                </mxCell>
                <mxCell id="69" value="Dados de login" style="swimlane;fontStyle=0;childLayout=stackLayout;horizontal=1;startSize=30;horizontalStack=0;resizeParent=1;resizeParentMax=0;resizeLast=0;collapsible=1;marginBottom=0;whiteSpace=wrap;html=1;rounded=1;sketch=1;curveFitting=1;jiggle=2;" parent="1" vertex="1">
                    <mxGeometry x="1200" y="35" width="140" height="120" as="geometry"/>
                </mxCell>
                <mxCell id="70" value="Nome&amp;nbsp;&lt;span style=&quot;color: rgb(0, 0, 204); font-size: 13px;&quot;&gt;FPU&lt;/span&gt;" style="text;strokeColor=none;fillColor=none;align=left;verticalAlign=middle;spacingLeft=4;spacingRight=4;overflow=hidden;points=[[0,0.5],[1,0.5]];portConstraint=eastwest;rotatable=0;whiteSpace=wrap;html=1;rounded=1;sketch=1;curveFitting=1;jiggle=2;" parent="69" vertex="1">
                    <mxGeometry y="30" width="140" height="30" as="geometry"/>
                </mxCell>
                <mxCell id="71" value="Email para login&amp;nbsp;&lt;span style=&quot;color: rgb(0, 0, 204); font-size: 13px;&quot;&gt;FPU&lt;/span&gt;" style="text;strokeColor=none;fillColor=none;align=left;verticalAlign=middle;spacingLeft=4;spacingRight=4;overflow=hidden;points=[[0,0.5],[1,0.5]];portConstraint=eastwest;rotatable=0;whiteSpace=wrap;html=1;rounded=1;sketch=1;curveFitting=1;jiggle=2;" parent="69" vertex="1">
                    <mxGeometry y="60" width="140" height="30" as="geometry"/>
                </mxCell>
                <mxCell id="72" value="Senha para login&amp;nbsp;&lt;span style=&quot;color: rgb(0, 0, 204); font-size: 13px;&quot;&gt;FPU&lt;/span&gt;" style="text;strokeColor=none;fillColor=none;align=left;verticalAlign=middle;spacingLeft=4;spacingRight=4;overflow=hidden;points=[[0,0.5],[1,0.5]];portConstraint=eastwest;rotatable=0;whiteSpace=wrap;html=1;rounded=1;sketch=1;curveFitting=1;jiggle=2;" parent="69" vertex="1">
                    <mxGeometry y="90" width="140" height="30" as="geometry"/>
                </mxCell>
                <mxCell id="117" style="edgeStyle=none;html=1;entryX=0.5;entryY=0;entryDx=0;entryDy=0;rounded=1;sketch=1;curveFitting=1;jiggle=2;" parent="1" source="74" target="110" edge="1">
                    <mxGeometry relative="1" as="geometry">
                        <Array as="points">
                            <mxPoint x="1120" y="240"/>
                        </Array>
                    </mxGeometry>
                </mxCell>
                <mxCell id="118" style="edgeStyle=none;html=1;rounded=1;sketch=1;curveFitting=1;jiggle=2;" parent="1" source="74" target="102" edge="1">
                    <mxGeometry relative="1" as="geometry">
                        <Array as="points">
                            <mxPoint x="1190" y="230"/>
                        </Array>
                    </mxGeometry>
                </mxCell>
                <mxCell id="74" value="" style="rounded=1;whiteSpace=wrap;html=1;sketch=1;curveFitting=1;jiggle=2;" parent="1" vertex="1">
                    <mxGeometry x="940" y="180" width="100" height="50" as="geometry"/>
                </mxCell>
                <mxCell id="75" value="Tem conta" style="text;html=1;strokeColor=none;fillColor=none;align=center;verticalAlign=middle;whiteSpace=wrap;rounded=1;sketch=1;curveFitting=1;jiggle=2;" parent="1" vertex="1">
                    <mxGeometry x="960" y="191" width="60" height="30" as="geometry"/>
                </mxCell>
                <mxCell id="76" value="" style="rounded=1;whiteSpace=wrap;html=1;sketch=1;curveFitting=1;jiggle=2;" parent="1" vertex="1">
                    <mxGeometry x="1500" y="210" width="100" height="50" as="geometry"/>
                </mxCell>
                <mxCell id="77" value="Tem conta" style="text;html=1;strokeColor=none;fillColor=none;align=center;verticalAlign=middle;whiteSpace=wrap;rounded=1;sketch=1;curveFitting=1;jiggle=2;" parent="1" vertex="1">
                    <mxGeometry x="1520" y="221" width="60" height="30" as="geometry"/>
                </mxCell>
                <mxCell id="129" style="edgeStyle=none;html=1;fontColor=#FFFFFF;exitX=0.5;exitY=1;exitDx=0;exitDy=0;rounded=1;sketch=1;curveFitting=1;jiggle=2;" parent="1" source="158" target="128" edge="1">
                    <mxGeometry relative="1" as="geometry">
                        <mxPoint x="1382.1379310344823" y="575" as="sourcePoint"/>
                    </mxGeometry>
                </mxCell>
                <mxCell id="98" value="Anfitrião/owner" style="text;html=1;align=center;verticalAlign=middle;resizable=0;points=[];autosize=1;strokeColor=none;fillColor=none;rounded=1;sketch=1;curveFitting=1;jiggle=2;" parent="1" vertex="1">
                    <mxGeometry x="900" y="11" width="100" height="30" as="geometry"/>
                </mxCell>
                <mxCell id="99" value=" Convidado/Guest" style="text;html=1;align=center;verticalAlign=middle;resizable=0;points=[];autosize=1;strokeColor=none;fillColor=none;rounded=1;sketch=1;curveFitting=1;jiggle=2;" parent="1" vertex="1">
                    <mxGeometry x="1500" y="5" width="120" height="30" as="geometry"/>
                </mxCell>
                <mxCell id="100" value="Pode criar Eventos&amp;nbsp;" style="rounded=1;whiteSpace=wrap;html=1;sketch=1;curveFitting=1;jiggle=2;" parent="1" vertex="1">
                    <mxGeometry x="940" y="260" width="120" height="20" as="geometry"/>
                </mxCell>
                <mxCell id="141" value="" style="edgeStyle=none;html=1;fontColor=#FFFFFF;rounded=1;sketch=1;curveFitting=1;jiggle=2;" parent="1" source="102" target="140" edge="1">
                    <mxGeometry relative="1" as="geometry"/>
                </mxCell>
                <mxCell id="216" style="edgeStyle=none;sketch=1;hachureGap=4;jiggle=2;curveFitting=1;html=1;fontFamily=Architects Daughter;fontSource=https%3A%2F%2Ffonts.googleapis.com%2Fcss%3Ffamily%3DArchitects%2BDaughter;fontSize=16;fontColor=#FFFFFF;entryX=0.417;entryY=0.015;entryDx=0;entryDy=0;entryPerimeter=0;" parent="1" source="102" target="217" edge="1">
                    <mxGeometry relative="1" as="geometry">
                        <mxPoint x="1280" y="370" as="targetPoint"/>
                        <Array as="points">
                            <mxPoint x="1270" y="310"/>
                        </Array>
                    </mxGeometry>
                </mxCell>
                <mxCell id="102" value="Pode visualizar seus eventos e os convidaodos do evento&lt;br&gt;" style="rounded=1;whiteSpace=wrap;html=1;sketch=1;curveFitting=1;jiggle=2;" parent="1" vertex="1">
                    <mxGeometry x="1140" y="240" width="120" height="60" as="geometry"/>
                </mxCell>
                <mxCell id="103" value="Fornecer os seguintes dados&amp;nbsp;" style="swimlane;fontStyle=0;childLayout=stackLayout;horizontal=1;startSize=30;horizontalStack=0;resizeParent=1;resizeParentMax=0;resizeLast=0;collapsible=1;marginBottom=0;whiteSpace=wrap;html=1;fontSize=13;rounded=1;sketch=1;curveFitting=1;jiggle=2;" parent="1" vertex="1">
                    <mxGeometry x="840" y="300" width="180" height="190" as="geometry"/>
                </mxCell>
                <mxCell id="104" value="Localização do evento &lt;font color=&quot;#0000cc&quot;&gt;FPU&lt;/font&gt;" style="text;strokeColor=none;fillColor=none;align=left;verticalAlign=middle;spacingLeft=4;spacingRight=4;overflow=hidden;points=[[0,0.5],[1,0.5]];portConstraint=eastwest;rotatable=0;whiteSpace=wrap;html=1;fontSize=13;rounded=1;sketch=1;curveFitting=1;jiggle=2;" parent="103" vertex="1">
                    <mxGeometry y="30" width="180" height="30" as="geometry"/>
                </mxCell>
                <mxCell id="105" value="Tipo de divisão de custo&amp;nbsp;&lt;span style=&quot;color: rgb(0, 0, 204);&quot;&gt;FPU&lt;/span&gt;" style="text;strokeColor=none;fillColor=none;align=left;verticalAlign=middle;spacingLeft=4;spacingRight=4;overflow=hidden;points=[[0,0.5],[1,0.5]];portConstraint=eastwest;rotatable=0;whiteSpace=wrap;html=1;fontSize=13;rounded=1;sketch=1;curveFitting=1;jiggle=2;" parent="103" vertex="1">
                    <mxGeometry y="60" width="180" height="40" as="geometry"/>
                </mxCell>
                <mxCell id="106" value="Custo com locação&amp;nbsp;&amp;nbsp;&lt;span style=&quot;color: rgb(0, 0, 204);&quot;&gt;FPU&lt;/span&gt;" style="text;strokeColor=none;fillColor=none;align=left;verticalAlign=middle;spacingLeft=4;spacingRight=4;overflow=hidden;points=[[0,0.5],[1,0.5]];portConstraint=eastwest;rotatable=0;whiteSpace=wrap;html=1;fontSize=13;rounded=1;sketch=1;curveFitting=1;jiggle=2;" parent="103" vertex="1">
                    <mxGeometry y="100" width="180" height="30" as="geometry"/>
                </mxCell>
                <mxCell id="107" value="Lista de consumiveis&amp;nbsp;&lt;span style=&quot;color: rgb(0, 0, 204);&quot;&gt;FPU&lt;/span&gt;" style="text;strokeColor=none;fillColor=none;align=left;verticalAlign=middle;spacingLeft=4;spacingRight=4;overflow=hidden;points=[[0,0.5],[1,0.5]];portConstraint=eastwest;rotatable=0;whiteSpace=wrap;html=1;fontSize=13;rounded=1;sketch=1;curveFitting=1;jiggle=2;" parent="103" vertex="1">
                    <mxGeometry y="130" width="180" height="30" as="geometry"/>
                </mxCell>
                <mxCell id="108" value="Lista de bebidas&amp;nbsp;&lt;span style=&quot;color: rgb(0, 0, 204);&quot;&gt;FPU&lt;/span&gt;" style="text;strokeColor=none;fillColor=none;align=left;verticalAlign=middle;spacingLeft=4;spacingRight=4;overflow=hidden;points=[[0,0.5],[1,0.5]];portConstraint=eastwest;rotatable=0;whiteSpace=wrap;html=1;fontSize=13;rounded=1;sketch=1;curveFitting=1;jiggle=2;" parent="103" vertex="1">
                    <mxGeometry y="160" width="180" height="30" as="geometry"/>
                </mxCell>
                <mxCell id="130" style="edgeStyle=none;html=1;fontColor=#FFFFFF;rounded=1;sketch=1;curveFitting=1;jiggle=2;" parent="1" source="109" target="131" edge="1">
                    <mxGeometry relative="1" as="geometry">
                        <mxPoint x="1599" y="770" as="targetPoint"/>
                    </mxGeometry>
                </mxCell>
                <mxCell id="109" value="O Owner pode alterar o level do convidado para gerenciar o evento&amp;nbsp;" style="rounded=1;whiteSpace=wrap;html=1;sketch=1;curveFitting=1;jiggle=2;" parent="1" vertex="1">
                    <mxGeometry x="1519" y="650" width="160" height="60" as="geometry"/>
                </mxCell>
                <mxCell id="114" style="edgeStyle=none;html=1;entryX=0.5;entryY=0;entryDx=0;entryDy=0;rounded=1;sketch=1;curveFitting=1;jiggle=2;" parent="1" source="110" target="113" edge="1">
                    <mxGeometry relative="1" as="geometry"/>
                </mxCell>
                <mxCell id="110" value="Pode editar seus eventos." style="rounded=1;whiteSpace=wrap;html=1;sketch=1;curveFitting=1;jiggle=2;" parent="1" vertex="1">
                    <mxGeometry x="1050" y="310" width="120" height="40" as="geometry"/>
                </mxCell>
                <mxCell id="124" style="edgeStyle=none;html=1;entryX=0.5;entryY=0;entryDx=0;entryDy=0;rounded=1;sketch=1;curveFitting=1;jiggle=2;" parent="1" source="113" target="120" edge="1">
                    <mxGeometry relative="1" as="geometry"/>
                </mxCell>
                <mxCell id="113" value="Cria convites para o evento" style="whiteSpace=wrap;html=1;rounded=1;sketch=1;curveFitting=1;jiggle=2;" parent="1" vertex="1">
                    <mxGeometry x="1040" y="510" width="120" height="60" as="geometry"/>
                </mxCell>
                <mxCell id="115" style="edgeStyle=none;html=1;entryX=0.25;entryY=0;entryDx=0;entryDy=0;exitX=1;exitY=0.5;exitDx=0;exitDy=0;rounded=1;sketch=1;curveFitting=1;jiggle=2;" parent="1" source="108" target="113" edge="1">
                    <mxGeometry relative="1" as="geometry"/>
                </mxCell>
                <mxCell id="120" value="Links de convite" style="swimlane;fontStyle=0;childLayout=stackLayout;horizontal=1;startSize=30;horizontalStack=0;resizeParent=1;resizeParentMax=0;resizeLast=0;collapsible=1;marginBottom=0;whiteSpace=wrap;html=1;rounded=1;sketch=1;curveFitting=1;jiggle=2;" parent="1" vertex="1">
                    <mxGeometry x="1020" y="615" width="160" height="170" as="geometry"/>
                </mxCell>
                <mxCell id="121" value="QR code - &amp;gt; &lt;font color=&quot;#cc0000&quot;&gt;FPS&lt;/font&gt;" style="text;strokeColor=none;fillColor=none;align=left;verticalAlign=middle;spacingLeft=4;spacingRight=4;overflow=hidden;points=[[0,0.5],[1,0.5]];portConstraint=eastwest;rotatable=0;whiteSpace=wrap;html=1;rounded=1;sketch=1;curveFitting=1;jiggle=2;" parent="120" vertex="1">
                    <mxGeometry y="30" width="160" height="30" as="geometry"/>
                </mxCell>
                <mxCell id="122" value="O link tem data de expiração -&amp;gt; &lt;font color=&quot;#0000cc&quot;&gt;FPU&lt;/font&gt;" style="text;strokeColor=none;fillColor=none;align=left;verticalAlign=middle;spacingLeft=4;spacingRight=4;overflow=hidden;points=[[0,0.5],[1,0.5]];portConstraint=eastwest;rotatable=0;whiteSpace=wrap;html=1;rounded=1;sketch=1;curveFitting=1;jiggle=2;" parent="120" vertex="1">
                    <mxGeometry y="60" width="160" height="50" as="geometry"/>
                </mxCell>
                <mxCell id="123" value="Quantidade de convidados por link -&amp;gt; &lt;font color=&quot;#0000cc&quot;&gt;FPU&lt;/font&gt;" style="text;strokeColor=none;fillColor=none;align=left;verticalAlign=middle;spacingLeft=4;spacingRight=4;overflow=hidden;points=[[0,0.5],[1,0.5]];portConstraint=eastwest;rotatable=0;whiteSpace=wrap;html=1;rounded=1;sketch=1;curveFitting=1;jiggle=2;" parent="120" vertex="1">
                    <mxGeometry y="110" width="160" height="60" as="geometry"/>
                </mxCell>
                <mxCell id="125" value="&lt;h1&gt;&lt;font color=&quot;#0000ff&quot;&gt;FPU&lt;/font&gt;&lt;/h1&gt;&lt;p&gt;Fornecido pelo usiario&lt;/p&gt;" style="text;html=1;strokeColor=none;fillColor=none;spacing=5;spacingTop=-20;whiteSpace=wrap;overflow=hidden;rounded=1;sketch=1;curveFitting=1;jiggle=2;" parent="1" vertex="1">
                    <mxGeometry x="919" y="-80" width="191" height="70" as="geometry"/>
                </mxCell>
                <mxCell id="126" value="&lt;h1&gt;&lt;font color=&quot;#990000&quot;&gt;FPS&lt;/font&gt;&lt;/h1&gt;&lt;p&gt;Fornecido pelo sistema&lt;/p&gt;" style="text;html=1;strokeColor=none;fillColor=none;spacing=5;spacingTop=-20;whiteSpace=wrap;overflow=hidden;rounded=1;sketch=1;curveFitting=1;jiggle=2;" parent="1" vertex="1">
                    <mxGeometry x="1060" y="-80" width="190" height="70" as="geometry"/>
                </mxCell>
                <mxCell id="127" style="edgeStyle=none;html=1;fontColor=#0000CC;rounded=1;sketch=1;curveFitting=1;jiggle=2;startArrow=none;" parent="1" source="128" target="109" edge="1">
                    <mxGeometry relative="1" as="geometry"/>
                </mxCell>
                <mxCell id="143" value="" style="edgeStyle=none;html=1;fontColor=#FFFFFF;exitX=0.999;exitY=0.677;exitDx=0;exitDy=0;exitPerimeter=0;entryX=-0.013;entryY=0.596;entryDx=0;entryDy=0;entryPerimeter=0;rounded=1;sketch=1;curveFitting=1;jiggle=2;" parent="1" source="138" target="142" edge="1">
                    <mxGeometry relative="1" as="geometry"/>
                </mxCell>
                <mxCell id="131" value="Informações que o owner especifica para a gestão &lt;b&gt;COA&lt;/b&gt;" style="swimlane;fontStyle=0;childLayout=stackLayout;horizontal=1;startSize=60;horizontalStack=0;resizeParent=1;resizeParentMax=0;resizeLast=0;collapsible=1;marginBottom=0;whiteSpace=wrap;html=1;fontColor=#FFFFFF;rounded=1;sketch=1;curveFitting=1;jiggle=2;" parent="1" vertex="1">
                    <mxGeometry x="1509" y="740" width="180" height="180" as="geometry">
                        <mxRectangle x="1410" y="720" width="310" height="60" as="alternateBounds"/>
                    </mxGeometry>
                </mxCell>
                <mxCell id="138" value="Pode gerenciar o financeiro do evento" style="text;strokeColor=none;fillColor=none;align=left;verticalAlign=middle;spacingLeft=4;spacingRight=4;overflow=hidden;points=[[0,0.5],[1,0.5]];portConstraint=eastwest;rotatable=0;whiteSpace=wrap;html=1;fontColor=#FFFFFF;rounded=1;sketch=1;curveFitting=1;jiggle=2;" parent="131" vertex="1">
                    <mxGeometry y="60" width="180" height="40" as="geometry"/>
                </mxCell>
                <mxCell id="139" value="Pode gerenciar convites" style="text;strokeColor=none;fillColor=none;align=left;verticalAlign=middle;spacingLeft=4;spacingRight=4;overflow=hidden;points=[[0,0.5],[1,0.5]];portConstraint=eastwest;rotatable=0;whiteSpace=wrap;html=1;fontColor=#FFFFFF;rounded=1;sketch=1;curveFitting=1;jiggle=2;" parent="131" vertex="1">
                    <mxGeometry y="100" width="180" height="40" as="geometry"/>
                </mxCell>
                <mxCell id="134" value="Pode gerenciar level de convidados" style="text;strokeColor=none;fillColor=none;align=left;verticalAlign=middle;spacingLeft=4;spacingRight=4;overflow=hidden;points=[[0,0.5],[1,0.5]];portConstraint=eastwest;rotatable=0;whiteSpace=wrap;html=1;fontColor=#FFFFFF;rounded=1;sketch=1;curveFitting=1;jiggle=2;" parent="131" vertex="1">
                    <mxGeometry y="140" width="180" height="40" as="geometry"/>
                </mxCell>
                <mxCell id="137" value="&lt;h1&gt;&lt;span style=&quot;background-color: initial;&quot;&gt;&lt;font color=&quot;#009900&quot;&gt;COA&lt;/font&gt;&lt;br&gt;&lt;/span&gt;&lt;span style=&quot;font-size: 12px; text-align: center; font-weight: normal;&quot;&gt;Co-anfitrião/Affiliated&lt;/span&gt;&lt;br&gt;&lt;/h1&gt;" style="text;html=1;strokeColor=none;fillColor=none;spacing=5;spacingTop=-20;whiteSpace=wrap;overflow=hidden;rounded=1;sketch=1;curveFitting=1;jiggle=2;" parent="1" vertex="1">
                    <mxGeometry x="1250" y="-80" width="190" height="70" as="geometry"/>
                </mxCell>
                <mxCell id="140" value="Pode deletar Eventos" style="whiteSpace=wrap;html=1;rounded=1;sketch=1;curveFitting=1;jiggle=2;" parent="1" vertex="1">
                    <mxGeometry x="1130" y="380" width="120" height="50" as="geometry"/>
                </mxCell>
                <mxCell id="142" value="Gere a lista de gastos e o tipo de divisão" style="whiteSpace=wrap;html=1;fontColor=#FFFFFF;fontStyle=0;startSize=60;rounded=1;sketch=1;curveFitting=1;jiggle=2;" parent="1" vertex="1">
                    <mxGeometry x="1724" y="740" width="120" height="40" as="geometry"/>
                </mxCell>
                <mxCell id="220" style="edgeStyle=none;sketch=1;hachureGap=4;jiggle=2;curveFitting=1;html=1;entryX=0;entryY=0.5;entryDx=0;entryDy=0;fontFamily=Architects Daughter;fontSource=https%3A%2F%2Ffonts.googleapis.com%2Fcss%3Ffamily%3DArchitects%2BDaughter;fontSize=16;fontColor=#FFFFFF;" parent="1" source="148" target="219" edge="1">
                    <mxGeometry relative="1" as="geometry"/>
                </mxCell>
                <mxCell id="148" value="Pode criar Links de convite" style="whiteSpace=wrap;html=1;fontColor=#FFFFFF;fontStyle=0;startSize=60;rounded=1;sketch=1;curveFitting=1;jiggle=2;" parent="1" vertex="1">
                    <mxGeometry x="1724" y="815" width="120" height="40" as="geometry"/>
                </mxCell>
                <mxCell id="149" style="edgeStyle=none;html=1;entryX=0;entryY=0.5;entryDx=0;entryDy=0;fontColor=#FFFFFF;exitX=1;exitY=0.5;exitDx=0;exitDy=0;rounded=1;sketch=1;curveFitting=1;jiggle=2;" parent="1" source="139" target="148" edge="1">
                    <mxGeometry relative="1" as="geometry"/>
                </mxCell>
                <mxCell id="151" value="Pode dar level &lt;b&gt;&lt;font color=&quot;#33ff33&quot;&gt;COA&lt;/font&gt;&lt;/b&gt; para outros convidados&amp;nbsp;" style="whiteSpace=wrap;html=1;fontColor=#FFFFFF;fontStyle=0;startSize=60;rounded=1;sketch=1;curveFitting=1;jiggle=2;" parent="1" vertex="1">
                    <mxGeometry x="1910" y="875" width="120" height="50" as="geometry"/>
                </mxCell>
                <mxCell id="157" style="edgeStyle=none;html=1;fontColor=#00CC00;rounded=1;sketch=1;curveFitting=1;jiggle=2;" parent="1" source="154" target="151" edge="1">
                    <mxGeometry relative="1" as="geometry"/>
                </mxCell>
                <mxCell id="154" value="Essa permisão acompanha as demais da lista&amp;nbsp;" style="whiteSpace=wrap;html=1;fontColor=#FFFFFF;fontStyle=0;startSize=60;rounded=1;sketch=1;curveFitting=1;jiggle=2;" parent="1" vertex="1">
                    <mxGeometry x="1730" y="885" width="120" height="40" as="geometry"/>
                </mxCell>
                <mxCell id="155" style="edgeStyle=none;html=1;entryX=0;entryY=0.5;entryDx=0;entryDy=0;fontColor=#00CC00;rounded=1;sketch=1;curveFitting=1;jiggle=2;" parent="1" source="134" target="154" edge="1">
                    <mxGeometry relative="1" as="geometry"/>
                </mxCell>
                <mxCell id="158" value="&lt;font color=&quot;#ffffff&quot;&gt;Pode participar&amp;nbsp;&lt;br style=&quot;&quot;&gt;de Eventos&amp;nbsp;&lt;/font&gt;" style="rounded=1;whiteSpace=wrap;html=1;fontColor=#00CC00;sketch=1;curveFitting=1;jiggle=2;" parent="1" vertex="1">
                    <mxGeometry x="1339" y="520" width="120" height="40" as="geometry"/>
                </mxCell>
                <mxCell id="173" style="edgeStyle=none;sketch=1;hachureGap=4;jiggle=2;curveFitting=1;html=1;entryX=0.5;entryY=0;entryDx=0;entryDy=0;fontFamily=Architects Daughter;fontSource=https%3A%2F%2Ffonts.googleapis.com%2Fcss%3Ffamily%3DArchitects%2BDaughter;fontSize=16;" parent="1" source="168" target="158" edge="1">
                    <mxGeometry relative="1" as="geometry"/>
                </mxCell>
                <mxCell id="174" style="edgeStyle=none;sketch=1;hachureGap=4;jiggle=2;curveFitting=1;html=1;fontFamily=Architects Daughter;fontSource=https%3A%2F%2Ffonts.googleapis.com%2Fcss%3Ffamily%3DArchitects%2BDaughter;fontSize=16;entryX=0;entryY=0.5;entryDx=0;entryDy=0;" parent="1" source="168" target="176" edge="1">
                    <mxGeometry relative="1" as="geometry">
                        <mxPoint x="1710" y="480" as="targetPoint"/>
                    </mxGeometry>
                </mxCell>
                <mxCell id="168" value="Dados adicionais" style="swimlane;fontStyle=0;childLayout=stackLayout;horizontal=1;startSize=30;horizontalStack=0;resizeParent=1;resizeParentMax=0;resizeLast=0;collapsible=1;marginBottom=0;whiteSpace=wrap;html=1;rounded=1;sketch=1;curveFitting=1;jiggle=2;" parent="1" vertex="1">
                    <mxGeometry x="1470" y="340" width="160" height="120" as="geometry"/>
                </mxCell>
                <mxCell id="169" value="Consumo de carne&amp;nbsp;&lt;span style=&quot;color: rgb(0, 0, 204); font-size: 13px;&quot;&gt;FPU&lt;/span&gt;" style="text;strokeColor=none;fillColor=none;align=left;verticalAlign=middle;spacingLeft=4;spacingRight=4;overflow=hidden;points=[[0,0.5],[1,0.5]];portConstraint=eastwest;rotatable=0;whiteSpace=wrap;html=1;rounded=1;sketch=1;curveFitting=1;jiggle=2;" parent="168" vertex="1">
                    <mxGeometry y="30" width="160" height="30" as="geometry"/>
                </mxCell>
                <mxCell id="170" value="Consumo de alcool&amp;nbsp;&lt;span style=&quot;color: rgb(0, 0, 204); font-size: 13px;&quot;&gt;FPU&lt;/span&gt;" style="text;strokeColor=none;fillColor=none;align=left;verticalAlign=middle;spacingLeft=4;spacingRight=4;overflow=hidden;points=[[0,0.5],[1,0.5]];portConstraint=eastwest;rotatable=0;whiteSpace=wrap;html=1;rounded=1;sketch=1;curveFitting=1;jiggle=2;" parent="168" vertex="1">
                    <mxGeometry y="60" width="160" height="30" as="geometry"/>
                </mxCell>
                <mxCell id="171" value="Consumo de Doce&amp;nbsp;&lt;span style=&quot;color: rgb(0, 0, 204); font-size: 13px;&quot;&gt;FPU&lt;/span&gt;" style="text;strokeColor=none;fillColor=none;align=left;verticalAlign=middle;spacingLeft=4;spacingRight=4;overflow=hidden;points=[[0,0.5],[1,0.5]];portConstraint=eastwest;rotatable=0;whiteSpace=wrap;html=1;rounded=1;sketch=1;curveFitting=1;jiggle=2;" parent="168" vertex="1">
                    <mxGeometry y="90" width="160" height="30" as="geometry"/>
                </mxCell>
                <mxCell id="180" style="edgeStyle=none;sketch=1;hachureGap=4;jiggle=2;curveFitting=1;html=1;fontFamily=Architects Daughter;fontSource=https%3A%2F%2Ffonts.googleapis.com%2Fcss%3Ffamily%3DArchitects%2BDaughter;fontSize=16;" parent="1" source="176" target="179" edge="1">
                    <mxGeometry relative="1" as="geometry"/>
                </mxCell>
                <mxCell id="183" style="edgeStyle=none;sketch=1;hachureGap=4;jiggle=2;curveFitting=1;html=1;entryX=0;entryY=1;entryDx=0;entryDy=0;fontFamily=Architects Daughter;fontSource=https%3A%2F%2Ffonts.googleapis.com%2Fcss%3Ffamily%3DArchitects%2BDaughter;fontSize=16;" parent="1" source="176" target="181" edge="1">
                    <mxGeometry relative="1" as="geometry"/>
                </mxCell>
                <mxCell id="211" style="edgeStyle=none;sketch=1;hachureGap=4;jiggle=2;curveFitting=1;html=1;fontFamily=Architects Daughter;fontSource=https%3A%2F%2Ffonts.googleapis.com%2Fcss%3Ffamily%3DArchitects%2BDaughter;fontSize=16;" parent="1" source="176" target="213" edge="1">
                    <mxGeometry relative="1" as="geometry">
                        <mxPoint x="2130" y="420" as="targetPoint"/>
                        <Array as="points">
                            <mxPoint x="1980" y="420"/>
                        </Array>
                    </mxGeometry>
                </mxCell>
                <mxCell id="176" value="Apos fornecer os dados é gerado o valor a ser pago para a participação do evento." style="rounded=1;whiteSpace=wrap;html=1;sketch=1;curveFitting=1;jiggle=2;" parent="1" vertex="1">
                    <mxGeometry x="1710" y="380" width="160" height="80" as="geometry"/>
                </mxCell>
                <mxCell id="179" value="Em divisão igualiatia o valor é apenar repartido igualmente os convidados" style="rounded=1;whiteSpace=wrap;html=1;sketch=1;curveFitting=1;jiggle=2;" parent="1" vertex="1">
                    <mxGeometry x="1910" y="470" width="160" height="80" as="geometry"/>
                </mxCell>
                <mxCell id="181" value="Em divisão&amp;nbsp; por consumo e feito o calculo com base na lista de consumiveis do evento e lista preenchida pelo Convidado" style="rounded=1;whiteSpace=wrap;html=1;sketch=1;curveFitting=1;jiggle=2;" parent="1" vertex="1">
                    <mxGeometry x="1910" y="290" width="160" height="80" as="geometry"/>
                </mxCell>
                <mxCell id="185" value="igualitária" style="rounded=1;whiteSpace=wrap;html=1;sketch=1;curveFitting=1;jiggle=2;" parent="1" vertex="1">
                    <mxGeometry x="663" y="350" width="120" height="20" as="geometry"/>
                </mxCell>
                <mxCell id="186" style="edgeStyle=none;sketch=1;hachureGap=4;jiggle=2;curveFitting=1;html=1;entryX=1;entryY=0.5;entryDx=0;entryDy=0;fontFamily=Architects Daughter;fontSource=https%3A%2F%2Ffonts.googleapis.com%2Fcss%3Ffamily%3DArchitects%2BDaughter;fontSize=16;" parent="1" target="185" edge="1">
                    <mxGeometry relative="1" as="geometry">
                        <mxPoint x="840" y="380" as="sourcePoint"/>
                    </mxGeometry>
                </mxCell>
                <mxCell id="187" value="Por consumo" style="rounded=1;whiteSpace=wrap;html=1;sketch=1;curveFitting=1;jiggle=2;" parent="1" vertex="1">
                    <mxGeometry x="663" y="380" width="120" height="20" as="geometry"/>
                </mxCell>
                <mxCell id="188" style="edgeStyle=none;sketch=1;hachureGap=4;jiggle=2;curveFitting=1;html=1;entryX=1;entryY=0.5;entryDx=0;entryDy=0;fontFamily=Architects Daughter;fontSource=https%3A%2F%2Ffonts.googleapis.com%2Fcss%3Ffamily%3DArchitects%2BDaughter;fontSize=16;" parent="1" source="105" target="187" edge="1">
                    <mxGeometry relative="1" as="geometry"/>
                </mxCell>
                <mxCell id="189" style="edgeStyle=none;sketch=1;hachureGap=4;jiggle=2;curveFitting=1;html=1;fontFamily=Architects Daughter;fontSource=https%3A%2F%2Ffonts.googleapis.com%2Fcss%3Ffamily%3DArchitects%2BDaughter;fontSize=16;entryX=0.5;entryY=0;entryDx=0;entryDy=0;" parent="1" source="107" target="194" edge="1">
                    <mxGeometry relative="1" as="geometry">
                        <mxPoint x="400" y="480" as="targetPoint"/>
                        <Array as="points">
                            <mxPoint x="400" y="445"/>
                        </Array>
                    </mxGeometry>
                </mxCell>
                <mxCell id="194" value="Informações de cada item da lista" style="swimlane;fontStyle=0;childLayout=stackLayout;horizontal=1;startSize=40;horizontalStack=0;resizeParent=1;resizeParentMax=0;resizeLast=0;collapsible=1;marginBottom=0;whiteSpace=wrap;html=1;rounded=1;sketch=1;curveFitting=1;jiggle=2;" parent="1" vertex="1">
                    <mxGeometry x="306" y="490" width="177" height="140" as="geometry"/>
                </mxCell>
                <mxCell id="195" value="Valor -&amp;gt;&amp;nbsp;&lt;span style=&quot;color: rgb(0, 0, 204);&quot;&gt;FPU&lt;/span&gt;" style="text;strokeColor=none;fillColor=none;align=left;verticalAlign=middle;spacingLeft=4;spacingRight=4;overflow=hidden;points=[[0,0.5],[1,0.5]];portConstraint=eastwest;rotatable=0;whiteSpace=wrap;html=1;rounded=1;sketch=1;curveFitting=1;jiggle=2;" parent="194" vertex="1">
                    <mxGeometry y="40" width="177" height="30" as="geometry"/>
                </mxCell>
                <mxCell id="198" value="Quantidade -&amp;gt;&amp;nbsp;&lt;span style=&quot;color: rgb(0, 0, 204);&quot;&gt;FPU&lt;/span&gt;" style="text;strokeColor=none;fillColor=none;align=left;verticalAlign=middle;spacingLeft=4;spacingRight=4;overflow=hidden;points=[[0,0.5],[1,0.5]];portConstraint=eastwest;rotatable=0;whiteSpace=wrap;html=1;rounded=1;sketch=1;curveFitting=1;jiggle=2;" parent="194" vertex="1">
                    <mxGeometry y="70" width="177" height="40" as="geometry"/>
                </mxCell>
                <mxCell id="196" value="Tipo de consumidor&amp;nbsp; -&amp;gt;&amp;nbsp;&lt;span style=&quot;color: rgb(0, 0, 204);&quot;&gt;FPU&lt;/span&gt;&lt;br&gt;&lt;span style=&quot;color: rgba(0, 0, 0, 0); font-family: monospace; font-size: 0px;&quot;&gt;%3CmxGraphModel%3E%3Croot%3E%3CmxCell%20id%3D%220%22%2F%3E%3CmxCell%20id%3D%221%22%20parent%3D%220%22%2F%3E%3CmxCell%20id%3D%222%22%20value%3D%22Quantidade%20-%26amp%3Bgt%3B%26amp%3Bnbsp%3B%26lt%3Bspan%20style%3D%26quot%3Bcolor%3A%20rgb(0%2C%200%2C%20204)%3B%26quot%3B%26gt%3BFPU%26lt%3B%2Fspan%26gt%3B%22%20style%3D%22text%3BstrokeColor%3Dnone%3BfillColor%3Dnone%3Balign%3Dleft%3BverticalAlign%3Dmiddle%3BspacingLeft%3D4%3BspacingRight%3D4%3Boverflow%3Dhidden%3Bpoints%3D%5B%5B0%2C0.5%5D%2C%5B1%2C0.5%5D%5D%3BportConstraint%3Deastwest%3Brotatable%3D0%3BwhiteSpace%3Dwrap%3Bhtml%3D1%3Brounded%3D1%3Bsketch%3D1%3BcurveFitting%3D1%3Bjiggle%3D2%3B%22%20vertex%3D%221%22%20parent%3D%221%22%3E%3CmxGeometry%20x%3D%22323%22%20y%3D%22560%22%20width%3D%22160%22%20height%3D%2250%22%20as%3D%22geometry%22%2F%3E%3C%2FmxCell%3E%3C%2Froot%3E%3C%2FmxGraphModel%3E&lt;/span&gt;&lt;span style=&quot;color: rgba(0, 0, 0, 0); font-family: monospace; font-size: 0px;&quot;&gt;%3CmxGraphModel%3E%3Croot%3E%3CmxCell%20id%3D%220%22%2F%3E%3CmxCell%20id%3D%221%22%20parent%3D%220%22%2F%3E%3CmxCell%20id%3D%222%22%20value%3D%22Quantidade%20-%26amp%3Bgt%3B%26amp%3Bnbsp%3B%26lt%3Bspan%20style%3D%26quot%3Bcolor%3A%20rgb(0%2C%200%2C%20204)%3B%26quot%3B%26gt%3BFPU%26lt%3B%2Fspan%26gt%3B%22%20style%3D%22text%3BstrokeColor%3Dnone%3BfillColor%3Dnone%3Balign%3Dleft%3BverticalAlign%3Dmiddle%3BspacingLeft%3D4%3BspacingRight%3D4%3Boverflow%3Dhidden%3Bpoints%3D%5B%5B0%2C0.5%5D%2C%5B1%2C0.5%5D%5D%3BportConstraint%3Deastwest%3Brotatable%3D0%3BwhiteSpace%3Dwrap%3Bhtml%3D1%3Brounded%3D1%3Bsketch%3D1%3BcurveFitting%3D1%3Bjiggle%3D2%3B%22%20vertex%3D%221%22%20parent%3D%221%22%3E%3CmxGeometry%20x%3D%22323%22%20y%3D%22560%22%20width%3D%22160%22%20height%3D%2250%22%20as%3D%22geometry%22%2F%3E%3C%2FmxCell%3E%3C%2Froot%3E%3C%2FmxGraphModel%3E&amp;nbsp;&lt;/span&gt;" style="text;strokeColor=none;fillColor=none;align=left;verticalAlign=middle;spacingLeft=4;spacingRight=4;overflow=hidden;points=[[0,0.5],[1,0.5]];portConstraint=eastwest;rotatable=0;whiteSpace=wrap;html=1;rounded=1;sketch=1;curveFitting=1;jiggle=2;" parent="194" vertex="1">
                    <mxGeometry y="110" width="177" height="30" as="geometry"/>
                </mxCell>
                <mxCell id="199" value="Informações de cada item da lista" style="swimlane;fontStyle=0;childLayout=stackLayout;horizontal=1;startSize=40;horizontalStack=0;resizeParent=1;resizeParentMax=0;resizeLast=0;collapsible=1;marginBottom=0;whiteSpace=wrap;html=1;rounded=1;sketch=1;curveFitting=1;jiggle=2;" parent="1" vertex="1">
                    <mxGeometry x="530" y="490" width="177" height="140" as="geometry"/>
                </mxCell>
                <mxCell id="200" value="Valor -&amp;gt;&amp;nbsp;&lt;span style=&quot;color: rgb(0, 0, 204);&quot;&gt;FPU&lt;/span&gt;" style="text;strokeColor=none;fillColor=none;align=left;verticalAlign=middle;spacingLeft=4;spacingRight=4;overflow=hidden;points=[[0,0.5],[1,0.5]];portConstraint=eastwest;rotatable=0;whiteSpace=wrap;html=1;rounded=1;sketch=1;curveFitting=1;jiggle=2;" parent="199" vertex="1">
                    <mxGeometry y="40" width="177" height="30" as="geometry"/>
                </mxCell>
                <mxCell id="201" value="Quantidade -&amp;gt;&amp;nbsp;&lt;span style=&quot;color: rgb(0, 0, 204);&quot;&gt;FPU&lt;/span&gt;" style="text;strokeColor=none;fillColor=none;align=left;verticalAlign=middle;spacingLeft=4;spacingRight=4;overflow=hidden;points=[[0,0.5],[1,0.5]];portConstraint=eastwest;rotatable=0;whiteSpace=wrap;html=1;rounded=1;sketch=1;curveFitting=1;jiggle=2;" parent="199" vertex="1">
                    <mxGeometry y="70" width="177" height="40" as="geometry"/>
                </mxCell>
                <mxCell id="202" value="Tipo de consumivel&amp;nbsp; -&amp;gt;&amp;nbsp;&lt;span style=&quot;color: rgb(0, 0, 204);&quot;&gt;FPU&lt;/span&gt;&lt;br&gt;&lt;span style=&quot;color: rgba(0, 0, 0, 0); font-family: monospace; font-size: 0px;&quot;&gt;%3CmxGraphModel%3E%3Croot%3E%3CmxCell%20id%3D%220%22%2F%3E%3CmxCell%20id%3D%221%22%20parent%3D%220%22%2F%3E%3CmxCell%20id%3D%222%22%20value%3D%22Quantidade%20-%26amp%3Bgt%3B%26amp%3Bnbsp%3B%26lt%3Bspan%20style%3D%26quot%3Bcolor%3A%20rgb(0%2C%200%2C%20204)%3B%26quot%3B%26gt%3BFPU%26lt%3B%2Fspan%26gt%3B%22%20style%3D%22text%3BstrokeColor%3Dnone%3BfillColor%3Dnone%3Balign%3Dleft%3BverticalAlign%3Dmiddle%3BspacingLeft%3D4%3BspacingRight%3D4%3Boverflow%3Dhidden%3Bpoints%3D%5B%5B0%2C0.5%5D%2C%5B1%2C0.5%5D%5D%3BportConstraint%3Deastwest%3Brotatable%3D0%3BwhiteSpace%3Dwrap%3Bhtml%3D1%3Brounded%3D1%3Bsketch%3D1%3BcurveFitting%3D1%3Bjiggle%3D2%3B%22%20vertex%3D%221%22%20parent%3D%221%22%3E%3CmxGeometry%20x%3D%22323%22%20y%3D%22560%22%20width%3D%22160%22%20height%3D%2250%22%20as%3D%22geometry%22%2F%3E%3C%2FmxCell%3E%3C%2Froot%3E%3C%2FmxGraphModel%3E&lt;/span&gt;&lt;span style=&quot;color: rgba(0, 0, 0, 0); font-family: monospace; font-size: 0px;&quot;&gt;%3CmxGraphModel%3E%3Croot%3E%3CmxCell%20id%3D%220%22%2F%3E%3CmxCell%20id%3D%221%22%20parent%3D%220%22%2F%3E%3CmxCell%20id%3D%222%22%20value%3D%22Quantidade%20-%26amp%3Bgt%3B%26amp%3Bnbsp%3B%26lt%3Bspan%20style%3D%26quot%3Bcolor%3A%20rgb(0%2C%200%2C%20204)%3B%26quot%3B%26gt%3BFPU%26lt%3B%2Fspan%26gt%3B%22%20style%3D%22text%3BstrokeColor%3Dnone%3BfillColor%3Dnone%3Balign%3Dleft%3BverticalAlign%3Dmiddle%3BspacingLeft%3D4%3BspacingRight%3D4%3Boverflow%3Dhidden%3Bpoints%3D%5B%5B0%2C0.5%5D%2C%5B1%2C0.5%5D%5D%3BportConstraint%3Deastwest%3Brotatable%3D0%3BwhiteSpace%3Dwrap%3Bhtml%3D1%3Brounded%3D1%3Bsketch%3D1%3BcurveFitting%3D1%3Bjiggle%3D2%3B%22%20vertex%3D%221%22%20parent%3D%221%22%3E%3CmxGeometry%20x%3D%22323%22%20y%3D%22560%22%20width%3D%22160%22%20height%3D%2250%22%20as%3D%22geometry%22%2F%3E%3C%2FmxCell%3E%3C%2Froot%3E%3C%2FmxGraphModel%3E&amp;nbsp;&lt;/span&gt;" style="text;strokeColor=none;fillColor=none;align=left;verticalAlign=middle;spacingLeft=4;spacingRight=4;overflow=hidden;points=[[0,0.5],[1,0.5]];portConstraint=eastwest;rotatable=0;whiteSpace=wrap;html=1;rounded=1;sketch=1;curveFitting=1;jiggle=2;" parent="199" vertex="1">
                    <mxGeometry y="110" width="177" height="30" as="geometry"/>
                </mxCell>
                <mxCell id="203" style="edgeStyle=none;sketch=1;hachureGap=4;jiggle=2;curveFitting=1;html=1;fontFamily=Architects Daughter;fontSource=https%3A%2F%2Ffonts.googleapis.com%2Fcss%3Ffamily%3DArchitects%2BDaughter;fontSize=16;entryX=0.5;entryY=0;entryDx=0;entryDy=0;" parent="1" source="108" target="199" edge="1">
                    <mxGeometry relative="1" as="geometry">
                        <mxPoint x="610" y="470" as="targetPoint"/>
                        <Array as="points">
                            <mxPoint x="620" y="470"/>
                        </Array>
                    </mxGeometry>
                </mxCell>
                <mxCell id="206" style="edgeStyle=none;sketch=1;hachureGap=4;jiggle=2;curveFitting=1;html=1;fontFamily=Architects Daughter;fontSource=https%3A%2F%2Ffonts.googleapis.com%2Fcss%3Ffamily%3DArchitects%2BDaughter;fontSize=16;entryX=1;entryY=0.5;entryDx=0;entryDy=0;" parent="1" source="196" target="208" edge="1">
                    <mxGeometry relative="1" as="geometry">
                        <mxPoint x="260" y="615" as="targetPoint"/>
                    </mxGeometry>
                </mxCell>
                <mxCell id="208" value="Carnivoro : true | false&lt;br&gt;Honivoro : true | false&lt;br&gt;Diaberico : true | false" style="rounded=1;whiteSpace=wrap;html=1;sketch=1;curveFitting=1;jiggle=2;" parent="1" vertex="1">
                    <mxGeometry x="130" y="570" width="120" height="65" as="geometry"/>
                </mxCell>
                <mxCell id="209" value="Alcolico : true | false&lt;br&gt;Sem&amp;nbsp;açucar : true | false&lt;br&gt;Com&amp;nbsp;açucar : true | false" style="rounded=1;whiteSpace=wrap;html=1;sketch=1;curveFitting=1;jiggle=2;" parent="1" vertex="1">
                    <mxGeometry x="760" y="570" width="150" height="65" as="geometry"/>
                </mxCell>
                <mxCell id="210" style="edgeStyle=none;sketch=1;hachureGap=4;jiggle=2;curveFitting=1;html=1;entryX=0;entryY=0.5;entryDx=0;entryDy=0;fontFamily=Architects Daughter;fontSource=https%3A%2F%2Ffonts.googleapis.com%2Fcss%3Ffamily%3DArchitects%2BDaughter;fontSize=16;" parent="1" source="202" target="209" edge="1">
                    <mxGeometry relative="1" as="geometry"/>
                </mxCell>
                <mxCell id="213" value="Caso não tenha nenhum consumivel para as configurações do convidado,o mesmo sera&amp;nbsp; notificado" style="rounded=1;whiteSpace=wrap;html=1;sketch=1;curveFitting=1;jiggle=2;" parent="1" vertex="1">
                    <mxGeometry x="2100" y="370" width="190" height="80" as="geometry"/>
                </mxCell>
                <mxCell id="215" value="&lt;h1&gt;&lt;font color=&quot;#ffffff&quot;&gt;Casos de Uso&lt;/font&gt;&lt;/h1&gt;&lt;p&gt;Somente o Owner pode deletar o evento&lt;/p&gt;&lt;p&gt;Os Co-anfitrioes e convidados podem sairem do E&lt;span style=&quot;background-color: initial;&quot;&gt;vento&amp;nbsp;&lt;/span&gt;&lt;/p&gt;&lt;p&gt;&lt;span style=&quot;background-color: initial;&quot;&gt;Um convidado apor fazer um cadastro pode organizar seus propios eventos&lt;/span&gt;&lt;/p&gt;&lt;p&gt;Um Anfitrião pode participar de eventos&lt;/p&gt;&lt;p&gt;&lt;br&gt;&lt;/p&gt;&lt;p&gt;&lt;span style=&quot;background-color: initial;&quot;&gt;&lt;br&gt;&lt;/span&gt;&lt;/p&gt;" style="text;html=1;strokeColor=none;fillColor=none;spacing=5;spacingTop=-20;whiteSpace=wrap;overflow=hidden;rounded=1;sketch=1;curveFitting=1;jiggle=2;" parent="1" vertex="1">
                    <mxGeometry x="637.5" y="5" width="191" height="245" as="geometry"/>
                </mxCell>
                <mxCell id="217" value="Pode remover convidados e Co-anfitrioes dos eventos" style="whiteSpace=wrap;html=1;rounded=1;sketch=1;curveFitting=1;jiggle=2;" parent="1" vertex="1">
                    <mxGeometry x="1270" y="320" width="120" height="60" as="geometry"/>
                </mxCell>
                <mxCell id="218" value="" style="edgeStyle=none;html=1;fontColor=#0000CC;rounded=1;sketch=1;curveFitting=1;jiggle=2;endArrow=none;" parent="1" source="122" target="128" edge="1">
                    <mxGeometry relative="1" as="geometry">
                        <mxPoint x="1180" y="696.7935871743489" as="sourcePoint"/>
                        <mxPoint x="1519" y="683.2064128256511" as="targetPoint"/>
                    </mxGeometry>
                </mxCell>
                <mxCell id="128" value="&lt;font color=&quot;#f0f0f0&quot;&gt;Apos um convidado acitar o link&lt;/font&gt;" style="rounded=1;whiteSpace=wrap;html=1;fontColor=#0000CC;sketch=1;curveFitting=1;jiggle=2;" parent="1" vertex="1">
                    <mxGeometry x="1270" y="660" width="120" height="60" as="geometry"/>
                </mxCell>
                <mxCell id="219" value="Pode remover convidados" style="whiteSpace=wrap;html=1;fontColor=#FFFFFF;fontStyle=0;startSize=60;rounded=1;sketch=1;curveFitting=1;jiggle=2;" parent="1" vertex="1">
                    <mxGeometry x="1900" y="810" width="120" height="40" as="geometry"/>
                </mxCell>
                <mxCell id="221" value="" style="shape=image;verticalLabelPosition=bottom;labelBackgroundColor=default;verticalAlign=top;aspect=fixed;imageAspect=0;image=data:image/svg+xml,PHN2ZyB4bWxucz0iaHR0cDovL3d3dy53My5vcmcvMjAwMC9zdmciIHdpZHRoPSI0OCIgaGVpZ2h0PSI0OCIgdmlld0JveD0iMCAwIDQ4IDQ4Ij48cGF0aCBkPSJNNiA0MnYtOC40bDE4Ljg1LTE4Ljg1LTMuNi0zLjZMMjMuMyA5LjFsNC42IDQuNkwzNSA2LjZxLjU1LS41NSAxLjE3NS0uNTV0MS4xNzUuNTVsNC4wNSA0LjA1cS41NS41NS41NSAxLjE3NVQ0MS40IDEzbC03LjEgNy4xIDQuNiA0LjYtMi4wNSAyLjA1LTMuNi0zLjZMMTQuNCA0MlptMy0zaDQuMzVMMzEuMSAyMS4yNWwtNC4zNS00LjM1TDkgMzQuNjVabTIzLjE1LTIxIDYuMi02LjItMi4xNS0yLjE1LTYuMiA2LjJabTAgMEwzMCAxNS44NSAzMi4xNSAxOFoiLz48L3N2Zz4=;" vertex="1" parent="1">
                    <mxGeometry width="48" height="48" as="geometry"/>
                </mxCell>
            </root>
        </mxGraphModel>
    </diagram>
</mxfile>